<svg width="28" height="28" viewBox="0 0 28 28" fill="none" xmlns="http://www.w3.org/2000/svg">
<path fill-rule="evenodd" clip-rule="evenodd" d="M8.34334 6.92888C7.95281 6.53836 7.31965 6.53836 6.92912 6.92888C6.5386 7.3194 6.5386 7.95257 6.92912 8.34309L12.586 13.9999L6.92912 19.6568C6.5386 20.0473 6.5386 20.6805 6.92912 21.071C7.31965 21.4615 7.95281 21.4615 8.34334 21.071L14.0002 15.4142L19.657 21.071C20.0476 21.4615 20.6807 21.4615 21.0713 21.071C21.4618 20.6805 21.4618 20.0473 21.0713 19.6568L15.4144 13.9999L21.0713 8.34309C21.4618 7.95257 21.4618 7.3194 21.0713 6.92888C20.6807 6.53836 20.0476 6.53836 19.657 6.92888L14.0002 12.5857L8.34334 6.92888Z" fill="#222222"/>
</svg>
