<svg width="65" height="16" viewBox="0 0 65 16" fill="none" xmlns="http://www.w3.org/2000/svg">
<path fill-rule="evenodd" clip-rule="evenodd" d="M6.335 0.740234C7.96 0.740234 8.765 1.87524 9.03 2.75524L9.025 2.74524L12.655 14.6053L12.665 14.6753C12.675 14.8153 12.585 14.9303 12.47 14.9453H10.24C10.13 14.9453 10.04 14.8653 10.005 14.7503L8.915 10.9603H3.755L2.665 14.7503C2.63 14.8703 2.54 14.9453 2.43 14.9453H0.225H0.2C0.08 14.9303 0 14.8153 0 14.6803L0.015 14.6103L3.64 2.75524C3.905 1.87524 4.71 0.740234 6.335 0.740234ZM5.895 3.52525L4.385 8.79027H8.29L6.775 3.52525C6.77338 3.52201 6.77112 3.51512 6.76794 3.50539C6.74159 3.42487 6.65173 3.15025 6.335 3.15025C6.00155 3.15025 5.91514 3.45463 5.89759 3.51645L5.895 3.52525ZM16.1049 4.31025C16.7149 4.13025 17.4149 4.02525 18.2199 4.02525L18.2249 4.02025C22.0849 4.02025 22.8949 5.98026 22.8949 7.63027V14.7503C22.8949 14.8603 22.8049 14.9453 22.6899 14.9453H20.5349C20.4199 14.9453 20.3299 14.8603 20.3299 14.7503V7.63027V7.6261C20.3299 7.03742 20.3299 6.43526 18.2199 6.43526C16.1049 6.43526 16.1049 7.04526 16.1049 7.63027V14.7503C16.1049 14.8603 16.0199 14.9453 15.9049 14.9453H13.7499C13.6349 14.9453 13.5449 14.8603 13.5449 14.7503V0.945235C13.5449 0.830235 13.6399 0.740234 13.7499 0.740234H15.9049C16.0199 0.740234 16.1049 0.830235 16.1049 0.945235V4.31025ZM59.6203 4.02525C58.8203 4.02525 58.1203 4.13025 57.5153 4.31525V0.945235C57.5153 0.840235 57.4253 0.740234 57.3053 0.740234H55.1503C55.0403 0.740234 54.9453 0.835235 54.9453 0.945235V11.6153C54.9453 13.2603 55.7553 15.2203 59.6203 15.2203C63.4853 15.2203 64.3003 13.2603 64.3003 11.6153V7.63527C64.3003 5.99026 63.4903 4.02525 59.6203 4.02525ZM61.7353 11.6153C61.7353 12.2003 61.7353 12.8053 59.6203 12.8053C57.5152 12.8053 57.5153 12.2059 57.5153 11.6235V11.6153V7.63527C57.5153 7.04526 57.5153 6.44026 59.6203 6.44026C61.7253 6.44026 61.7353 7.04526 61.7353 7.63527V11.6153ZM44.2745 6.3704C44.7991 4.81645 46.3074 4.02647 48.7445 4.02539C52.6052 4.02709 53.4145 5.99111 53.4145 7.63541V11.6154C53.4145 13.2604 52.5995 15.2204 48.7395 15.2204C44.8795 15.2204 44.0645 13.3454 44.0645 11.6154C44.0645 9.88542 44.8745 8.24041 48.7695 8.24041C48.7695 8.24041 50.5095 8.28041 50.8545 8.28541V7.63541C50.8545 7.0454 50.8545 6.4404 48.7395 6.4404C46.949 6.4404 46.7682 6.93944 46.7064 7.10993L46.7045 7.11541C46.6695 7.22541 46.5595 7.27541 46.4545 7.24541L44.3995 6.6354C44.2895 6.5904 44.2295 6.5054 44.2745 6.3704ZM48.7445 4.02539L48.7395 4.02539H48.7495L48.7445 4.02539ZM48.7395 12.8054C50.8545 12.8054 50.8545 12.2004 50.8545 11.6154V10.4604C50.5195 10.4554 48.7395 10.4204 48.7395 10.4204C46.6245 10.4204 46.6245 11.0304 46.6245 11.6154C46.6245 12.2004 46.6245 12.8054 48.7395 12.8054ZM42.9393 12.5353H39.7043C38.1443 12.5353 38.0843 11.4853 38.0843 10.8953V0.945235C38.0843 0.835235 37.9993 0.740234 37.8843 0.740234H35.7243C35.6143 0.740234 35.5293 0.830235 35.5293 0.945235V10.8953C35.5293 12.2453 35.9793 14.9503 39.7043 14.9503H42.9393C43.0543 14.9503 43.1443 14.8603 43.1443 14.7453V12.7353C43.1443 12.6253 43.0543 12.5353 42.9393 12.5353ZM24.4746 7.63541C24.4746 5.9854 25.2896 4.02539 29.1496 4.02539C33.0146 4.02539 33.8296 5.9854 33.8296 7.63541V14.7554C33.8296 14.8654 33.7396 14.9504 33.6246 14.9504H31.4696C31.3596 14.9504 31.2646 14.8654 31.2646 14.7554V7.63541V7.63124C31.2646 7.04256 31.2646 6.4404 29.1546 6.4404C27.0396 6.4404 27.0396 7.05041 27.0396 7.63541V14.7554C27.0396 14.8654 26.9496 14.9504 26.8346 14.9504H24.6796C24.5696 14.9504 24.4746 14.8654 24.4746 14.7554V7.63541Z" fill="white"/>
</svg>
