<svg width="40" height="40" viewBox="0 0 40 40" fill="none" xmlns="http://www.w3.org/2000/svg">
<path d="M20.0012 9C13.6743 9 8.54541 13.6978 8.54541 19.4946C8.54541 23.7757 10.3559 25.82 12.8355 27.6816L12.8478 27.6865V32.7108C12.8478 32.9496 13.1208 33.0836 13.3127 32.9423L17.6569 29.7479L17.7504 29.7869C18.4785 29.9209 19.2312 29.9891 20.0012 29.9891C26.3281 29.9891 31.4545 25.2913 31.4545 19.4946C31.4545 13.6978 26.3256 9 20.0012 9ZM16.1613 22.1529C17.2855 22.1529 18.2448 21.4877 18.5351 20.4595H20.1955C19.7896 22.438 18.235 23.7367 16.1637 23.7367C13.7555 23.7367 11.8466 21.958 11.8466 19.4824C11.8466 17.0068 13.7555 15.228 16.1637 15.228C18.2571 15.228 19.8216 16.5511 20.2078 18.5662H18.5523C18.3014 17.4722 17.3076 16.7899 16.1637 16.7899C14.5451 16.7899 13.4677 17.9327 13.4677 19.4824C13.4677 21.0321 14.6927 22.1529 16.1637 22.1529M27.1078 23.5735H25.5852V20.1719C25.5852 19.3898 25.1252 18.9682 24.4167 18.9682C23.6271 18.9682 23.1179 19.4483 23.1179 20.418V23.5735H21.5952V15.2548H23.1179V18.3835C23.482 17.8352 24.0723 17.5647 24.8743 17.5647C25.5237 17.5647 26.055 17.7743 26.4658 18.208C26.8914 18.6393 27.1029 19.2241 27.1029 19.9843V23.5735H27.1078Z" fill="white"/>
</svg>
