<svg width="40" height="40" viewBox="0 0 40 40" fill="none" xmlns="http://www.w3.org/2000/svg">
<path d="M34 14.2724C34 13.0753 33.5942 12.064 32.7826 11.2384C31.971 10.4128 30.9971 10 29.8609 10H10.1391C9.0029 10 8.02899 10.4128 7.21739 11.2384C6.4058 12.064 6 13.0753 6 14.2724V25.7276C6 26.9247 6.4058 27.936 7.21739 28.7616C8.02899 29.5872 9.0029 30 10.1391 30H29.8609C30.9971 30 31.971 29.5872 32.7826 28.7616C33.5942 27.936 34 26.9247 34 25.7276V14.2724ZM17.2 24.8607V14.0867L25.2348 19.4737L17.2 24.8607Z" fill="white"/>
</svg>
