<svg width="40" height="40" viewBox="0 0 40 40" fill="none" xmlns="http://www.w3.org/2000/svg">
<path d="M12.2345 16.4653H7.64868V31.2709H12.2345V16.4653Z" fill="white"/>
<path d="M9.91821 14.4706C11.4196 14.4706 12.6301 13.2485 12.6301 11.7353C12.6301 10.2222 11.4196 9 9.91821 9C8.41676 9 7.2063 10.2222 7.2063 11.7353C7.2063 13.2485 8.41676 14.4706 9.91821 14.4706Z" fill="white"/>
<path d="M19.5666 23.4959C19.5666 21.4124 20.521 20.1786 22.3599 20.1786C24.0476 20.1786 24.8507 21.3659 24.8507 23.4959V31.2712H29.4132V21.8896C29.4132 17.9205 27.1669 16 24.0243 16C20.8818 16 19.5666 18.4443 19.5666 18.4443V16.4539H15.167V31.2595H19.5666V23.4843V23.4959Z" fill="white"/>
</svg>
