<svg width="40" height="40" viewBox="0 0 40 40" fill="none" xmlns="http://www.w3.org/2000/svg">
<g clip-path="url(#clip0_8252_246)">
<path fill-rule="evenodd" clip-rule="evenodd" d="M22.6384 32.7321C28.5531 31.5128 33 26.2757 33 20C33 12.8203 27.1797 7 20 7C12.8203 7 7 12.8203 7 20C7 26.5929 11.9078 32.0395 18.2693 32.8858V33H18.2787H20H22.6384V32.7321ZM22.6384 32.7321V22.913H25.6798L26 19.5391H22.629V17.6174C22.629 16.8174 22.7985 16.5043 23.6365 16.5043H26V13H22.9774C19.7288 13 18.2693 14.3217 18.2693 16.8435V19.5391H16V22.9565H18.2693V32.8858C18.8355 32.9611 19.4132 33 20 33C20.904 33 21.7864 32.9077 22.6384 32.7321Z" fill="white"/>
</g>
<defs>
<clipPath id="clip0_8252_246">
<rect x="7" y="7" width="26" height="26" rx="13" fill="white"/>
</clipPath>
</defs>
</svg>
